<svg width="318" height="96" viewBox="0 0 318 96" fill="none" xmlns="http://www.w3.org/2000/svg">
<path d="M47.688 0C21.3512 0 0 21.4907 0 48.0003C0 74.511 21.3512 96 47.688 96C74.0277 96 95.3766 74.511 95.3766 48.0003C95.3766 21.4924 74.0277 0.00229276 47.6874 0.00229276L47.688 0ZM69.5574 69.2302C68.7032 70.6402 66.8696 71.0873 65.4687 70.2218C54.2721 63.3378 40.1769 61.7787 23.5772 65.5961C21.9776 65.963 20.3831 64.9542 20.0187 63.3435C19.6525 61.7328 20.6508 60.1279 22.2544 59.761C40.42 55.5836 56.0021 57.3823 68.5723 65.1147C69.9731 65.9802 70.4173 67.8201 69.5574 69.2302ZM75.3943 56.1603C74.3181 57.9211 72.0289 58.4771 70.2806 57.3938C57.4622 49.4631 37.9224 47.1663 22.7606 51.7988C20.7943 52.3967 18.7175 51.2812 18.1207 49.3054C17.5284 47.3262 18.6372 45.2398 20.6001 44.6379C37.919 39.3485 59.4496 41.9107 74.17 51.0159C75.9183 52.0992 76.4706 54.4028 75.3943 56.1603ZM75.8955 42.5504C60.5258 33.3615 35.1679 32.5166 20.4936 36.9996C18.1372 37.7189 15.6453 36.38 14.9312 34.0081C14.2171 31.6351 15.5462 29.1285 17.9043 28.4074C34.7494 23.2602 62.7524 24.2546 80.4477 34.8283C82.5718 36.0945 83.2665 38.8498 82.008 40.9804C80.7552 43.1138 78.0104 43.8171 75.8978 42.5504H75.8955ZM129.743 44.3112C121.509 42.3349 120.045 40.9477 120.045 38.033C120.045 35.2794 122.619 33.4263 126.452 33.4263C130.165 33.4263 133.843 34.8335 137.704 37.7304C137.818 37.8181 137.966 37.8531 138.109 37.8301C138.257 37.8083 138.382 37.7287 138.467 37.6089L142.488 31.9045C142.653 31.6695 142.607 31.3456 142.385 31.1662C137.79 27.4559 132.619 25.6521 126.571 25.6521C117.682 25.6521 111.469 31.0223 111.469 38.706C111.469 46.9456 116.828 49.8632 126.087 52.1152C133.963 53.942 135.296 55.4724 135.296 58.2077C135.296 61.2399 132.608 63.1257 128.28 63.1257C123.474 63.1257 119.55 61.4921 115.165 57.6746C115.057 57.5772 114.909 57.5371 114.772 57.5428C114.624 57.5543 114.493 57.623 114.402 57.7319L109.892 63.1314C109.704 63.3607 109.727 63.6931 109.943 63.888C115.046 68.4736 121.321 70.8924 128.098 70.8924C137.676 70.8924 143.866 65.6248 143.866 57.4683C143.883 50.586 139.789 46.7742 129.76 44.3187L129.743 44.3112ZM165.539 36.1375C161.388 36.1375 157.983 37.7837 155.17 41.1569V37.3601C155.17 37.0603 154.93 36.8162 154.634 36.8162H147.26C146.964 36.8162 146.725 37.0603 146.725 37.3601V79.5477C146.725 79.8457 146.964 80.0922 147.26 80.0922H154.634C154.93 80.0922 155.17 79.8457 155.17 79.5477V66.2324C157.983 69.4021 161.388 70.9555 165.539 70.9555C173.255 70.9555 181.068 64.9771 181.068 53.5482C181.08 42.117 173.267 36.1369 165.545 36.1369L165.539 36.1375ZM172.492 53.5482C172.492 59.3655 168.933 63.4295 163.831 63.4295C158.791 63.4295 154.987 59.1821 154.987 53.5482C154.987 47.9137 158.791 43.6675 163.831 43.6675C168.848 43.667 172.492 47.822 172.492 53.5482ZM201.085 36.1375C191.148 36.1375 183.363 43.8389 183.363 53.6726C183.363 63.4008 191.097 71.0186 200.965 71.0186C210.936 71.0186 218.744 63.3435 218.744 53.5482C218.744 43.7862 210.988 36.1375 201.085 36.1375ZM201.085 63.4868C195.8 63.4868 191.814 59.2108 191.814 53.5453C191.814 47.8541 195.664 43.7243 200.965 43.7243C206.284 43.7243 210.293 47.9986 210.293 53.6697C210.293 59.3598 206.421 63.4868 201.085 63.4868ZM239.962 36.8162H231.847V28.467C231.847 28.1678 231.608 27.9236 231.312 27.9236H223.937C223.641 27.9236 223.396 28.1678 223.396 28.467V36.8162H219.854C219.558 36.8162 219.319 37.0603 219.319 37.3601V43.738C219.319 44.0372 219.558 44.282 219.854 44.282H223.396V60.7871C223.396 67.4533 226.693 70.8351 233.202 70.8351C235.844 70.8351 238.037 70.2849 240.104 69.1041C240.275 69.0124 240.377 68.8289 240.377 68.6341V62.5582C240.377 62.3748 240.281 62.1971 240.121 62.0997C239.962 61.9965 239.762 61.9908 239.597 62.0767C238.179 62.7932 236.807 63.1257 235.269 63.1257C232.906 63.1257 231.847 62.0424 231.847 59.6235V44.2849H239.962C240.258 44.2849 240.497 44.0407 240.497 43.7409V37.3636C240.508 37.0638 240.269 36.8196 239.967 36.8196L239.962 36.8162ZM268.229 36.8488V35.8234C268.229 32.8067 269.38 31.4614 271.954 31.4614C273.491 31.4614 274.727 31.7686 276.111 32.2329C276.282 32.2868 276.458 32.2598 276.595 32.1572C276.737 32.0546 276.817 31.8901 276.817 31.7159V25.4624C276.817 25.2233 276.669 25.0118 276.435 24.9413C274.978 24.504 273.11 24.0552 270.308 24.0552C263.503 24.0552 259.898 27.915 259.898 35.2135V36.7841H256.356C256.06 36.7841 255.815 37.0282 255.815 37.3274V43.738C255.815 44.0372 256.06 44.282 256.356 44.282H259.898V69.7346C259.898 70.0384 260.143 70.2791 260.439 70.2791H267.808C268.11 70.2791 268.349 70.0384 268.349 69.7346V44.2837H275.234L285.78 69.7346C284.584 72.4057 283.405 72.9387 281.8 72.9387C280.501 72.9387 279.129 72.549 277.734 71.7752C277.603 71.7064 277.443 71.6949 277.307 71.735C277.164 71.7866 277.045 71.8898 276.988 72.0274L274.488 77.5472C274.368 77.8109 274.471 78.1147 274.721 78.2522C277.329 79.6738 279.681 80.2813 282.591 80.2813C288.035 80.2813 291.048 77.7249 293.696 70.8581L306.486 37.5917C306.554 37.4243 306.531 37.2352 306.429 37.0867C306.332 36.9394 306.167 36.8505 305.99 36.8505H298.314C298.08 36.8505 297.875 36.9979 297.801 37.2151L289.937 59.8184L281.327 37.2002C281.247 36.9898 281.048 36.8505 280.826 36.8505H268.229V36.8488ZM251.841 36.8162H244.466C244.17 36.8162 243.925 37.0603 243.925 37.3601V69.7346C243.925 70.0384 244.17 70.2791 244.466 70.2791H251.841C252.137 70.2791 252.381 70.0384 252.381 69.7346V37.3624C252.381 37.0626 252.142 36.8184 251.841 36.8184V36.8162ZM248.196 22.0742C245.275 22.0742 242.906 24.4541 242.906 27.394C242.906 30.3356 245.275 32.7184 248.196 32.7184C251.117 32.7184 253.481 30.3356 253.481 27.394C253.481 24.4547 251.112 22.0742 248.196 22.0742ZM312.784 47.2259C309.868 47.2259 307.596 44.8672 307.596 42.003C307.596 39.1387 309.897 36.7531 312.812 36.7531C315.728 36.7531 318 39.1112 318 41.9732C318 44.8374 315.699 47.2259 312.784 47.2259ZM312.812 37.2724C310.153 37.2724 308.143 39.399 308.143 42.003C308.143 44.6058 310.141 46.7037 312.784 46.7037C315.443 46.7037 317.453 44.5789 317.453 41.9732C317.453 39.3703 315.455 37.2724 312.812 37.2724ZM313.963 42.5103L315.432 44.5783H314.19L312.869 42.6811H311.736V44.5783H310.7V39.0963H313.125C314.395 39.0963 315.227 39.748 315.227 40.8451C315.232 41.7439 314.714 42.293 313.968 42.5103H313.963ZM313.086 40.0369H311.736V41.7708H313.086C313.758 41.7708 314.162 41.439 314.162 40.903C314.162 40.339 313.758 40.0369 313.086 40.0369Z" fill="#62CD5D"/>
</svg>
